<svg width="32" height="30" viewBox="0 0 32 30" fill="none" xmlns="http://www.w3.org/2000/svg">
<path d="M18.7089 5.51993C14.8344 6.01791 6.66986 3.87461 6.17187 0L6.1145 0.00737651C6.51304 3.10843 8.12719 5.92414 10.6017 7.83513C13.0763 9.74613 16.2086 10.5958 19.3097 10.1974C21.1703 9.95827 23.0498 10.468 24.5346 11.6146C26.0195 12.7612 26.9879 14.4506 27.2271 16.3113C27.4667 18.1718 26.9572 20.0515 25.8109 21.5365C24.6646 23.0216 22.9753 23.9903 21.1148 24.2299C19.254 24.4694 17.3745 23.9599 15.8894 22.8136C14.4044 21.6673 13.4355 19.978 13.196 18.1175C12.9987 16.5819 12.5008 15.1003 11.7308 13.7572C10.9607 12.4141 9.93376 11.2358 8.70837 10.2896C7.48297 9.34343 6.08328 8.64782 4.58909 8.24262C3.09491 7.83735 1.53552 7.73042 0 7.92784L0.0073121 7.98473C3.88119 7.48683 8.01905 14.8407 8.5186 18.7157L8.51781 18.7157C8.81508 21.0284 9.79138 23.2009 11.3233 24.9587C12.8552 26.7165 14.8739 27.9805 17.1242 28.5909C19.3746 29.2014 21.7553 29.1309 23.9656 28.3882C26.1758 27.6456 28.1162 26.2643 29.5414 24.419C30.9665 22.5735 31.8125 20.347 31.9723 18.0208C32.1321 15.6946 31.5984 13.3734 30.439 11.3505C29.2795 9.32756 27.5462 7.69397 25.4583 6.65613C23.3702 5.61829 21.0214 5.22295 18.7089 5.51993Z" fill="url(#paint0_linear_319_33)"/>
<defs>
<linearGradient id="paint0_linear_319_33" x1="10.7507" y1="3.93905" x2="34.3288" y2="31.0538" gradientUnits="userSpaceOnUse">
<stop stop-color="#57B8FF"/>
<stop offset="0.940625" stop-color="#038EF2"/>
<stop offset="1" stop-color="white" stop-opacity="0"/>
</linearGradient>
</defs>
</svg>
