<svg width="171" height="48" viewBox="0 0 171 48" fill="none" xmlns="http://www.w3.org/2000/svg">
<path d="M27.9368 11.9175C22.5162 12.6142 11.0935 9.6156 10.3968 4.19479L10.3165 4.20511C10.8741 8.54367 13.1324 12.483 16.5944 15.1566C20.0565 17.8302 24.4388 19.019 28.7774 18.4616C31.3805 18.127 34.01 18.8402 36.0874 20.4443C38.1648 22.0484 39.5197 24.4121 39.8543 27.0152C40.1895 29.6182 39.4767 32.2481 37.873 34.3256C36.2692 36.4034 33.9058 37.7587 31.3028 38.0939C28.6995 38.4289 26.0699 37.7161 23.9922 36.1124C21.9146 34.5086 20.5591 32.1452 20.224 29.5422C19.9479 27.3938 19.2513 25.321 18.174 23.4419C17.0967 21.5629 15.6599 19.9143 13.9455 18.5906C12.2311 17.2668 10.2728 16.2936 8.18237 15.7267C6.09192 15.1597 3.91025 15.0101 1.76196 15.2863L1.77219 15.3659C7.19198 14.6693 12.9811 24.9578 13.68 30.3791L13.6789 30.3792C14.0948 33.6148 15.4607 36.6543 17.6039 39.1135C19.7472 41.5727 22.5715 43.3412 25.7198 44.1952C28.8682 45.0493 32.199 44.9507 35.2913 43.9116C38.3835 42.8727 41.0982 40.9401 43.0922 38.3584C45.0859 35.7765 46.2695 32.6615 46.4931 29.4069C46.7167 26.1525 45.97 22.905 44.3479 20.0748C42.7257 17.2446 40.3007 14.9591 37.3796 13.5071C34.4583 12.0551 31.1722 11.502 27.9368 11.9175Z" fill="url(#paint0_linear_313_31)"/>
<path d="M58.2873 14.0958V33H54.4956V14.0958H58.2873ZM70.3481 17.7792C72.1356 17.7792 73.58 18.3479 74.6814 19.4854C75.7828 20.6049 76.3335 22.1757 76.3335 24.1979V33H72.5418V24.7125C72.5418 23.5208 72.2439 22.609 71.6481 21.9771C71.0522 21.3271 70.2397 21.0021 69.2106 21.0021C68.1633 21.0021 67.3328 21.3271 66.7189 21.9771C66.1231 22.609 65.8252 23.5208 65.8252 24.7125V33H62.0335V17.9958H65.8252V19.8646C66.3307 19.2146 66.9717 18.709 67.7481 18.3479C68.5425 17.9687 69.4092 17.7792 70.3481 17.7792ZM86.8183 21.1104H84.1912V33H80.3454V21.1104H78.6392V17.9958H80.3454V17.2375C80.3454 15.3958 80.869 14.0417 81.9162 13.175C82.9635 12.3083 84.5433 11.9021 86.6558 11.9563V15.1521C85.735 15.134 85.094 15.2875 84.7329 15.6125C84.3718 15.9375 84.1912 16.5243 84.1912 17.3729V17.9958H86.8183V21.1104ZM91.1984 16.2083C90.5304 16.2083 89.9706 16.0007 89.5193 15.5854C89.0859 15.1521 88.8693 14.6194 88.8693 13.9875C88.8693 13.3556 89.0859 12.8319 89.5193 12.4167C89.9706 11.9833 90.5304 11.7667 91.1984 11.7667C91.8665 11.7667 92.4172 11.9833 92.8505 12.4167C93.3019 12.8319 93.5276 13.3556 93.5276 13.9875C93.5276 14.6194 93.3019 15.1521 92.8505 15.5854C92.4172 16.0007 91.8665 16.2083 91.1984 16.2083ZM93.0672 17.9958V33H89.2755V17.9958H93.0672ZM105.128 17.7792C106.915 17.7792 108.36 18.3479 109.461 19.4854C110.563 20.6049 111.113 22.1757 111.113 24.1979V33H107.322V24.7125C107.322 23.5208 107.024 22.609 106.428 21.9771C105.832 21.3271 105.02 21.0021 103.99 21.0021C102.943 21.0021 102.113 21.3271 101.499 21.9771C100.903 22.609 100.605 23.5208 100.605 24.7125V33H96.8134V17.9958H100.605V19.8646C101.11 19.2146 101.751 18.709 102.528 18.3479C103.322 17.9687 104.189 17.7792 105.128 17.7792ZM116.642 16.2083C115.974 16.2083 115.414 16.0007 114.963 15.5854C114.529 15.1521 114.313 14.6194 114.313 13.9875C114.313 13.3556 114.529 12.8319 114.963 12.4167C115.414 11.9833 115.974 11.7667 116.642 11.7667C117.31 11.7667 117.861 11.9833 118.294 12.4167C118.745 12.8319 118.971 13.3556 118.971 13.9875C118.971 14.6194 118.745 15.1521 118.294 15.5854C117.861 16.0007 117.31 16.2083 116.642 16.2083ZM118.511 17.9958V33H114.719V17.9958H118.511ZM125.723 29.8854H132.413V33H121.417V29.9396L127.971 21.1104H121.444V17.9958H132.332V21.0563L125.723 29.8854ZM134.374 25.4437C134.374 23.9271 134.672 22.5819 135.268 21.4083C135.881 20.2347 136.703 19.3319 137.732 18.7C138.779 18.0681 139.944 17.7521 141.226 17.7521C142.345 17.7521 143.32 17.9778 144.151 18.4292C145 18.8806 145.677 19.4493 146.182 20.1354V17.9958H150.001V33H146.182V30.8063C145.695 31.5104 145.018 32.0972 144.151 32.5667C143.302 33.0181 142.318 33.2438 141.199 33.2438C139.935 33.2438 138.779 32.9188 137.732 32.2688C136.703 31.6188 135.881 30.7069 135.268 29.5333C134.672 28.3417 134.374 26.9785 134.374 25.4437ZM146.182 25.4979C146.182 24.5771 146.002 23.7917 145.64 23.1417C145.279 22.4736 144.792 21.9681 144.178 21.625C143.564 21.2639 142.905 21.0833 142.201 21.0833C141.497 21.0833 140.847 21.2549 140.251 21.5979C139.655 21.941 139.168 22.4465 138.788 23.1146C138.427 23.7646 138.247 24.541 138.247 25.4437C138.247 26.3465 138.427 27.141 138.788 27.8271C139.168 28.4951 139.655 29.0097 140.251 29.3708C140.865 29.7319 141.515 29.9125 142.201 29.9125C142.905 29.9125 143.564 29.741 144.178 29.3979C144.792 29.0368 145.279 28.5312 145.64 27.8812C146.002 27.2132 146.182 26.4188 146.182 25.4979ZM155.627 16.2083C154.959 16.2083 154.399 16.0007 153.948 15.5854C153.515 15.1521 153.298 14.6194 153.298 13.9875C153.298 13.3556 153.515 12.8319 153.948 12.4167C154.399 11.9833 154.959 11.7667 155.627 11.7667C156.295 11.7667 156.846 11.9833 157.279 12.4167C157.731 12.8319 157.956 13.3556 157.956 13.9875C157.956 14.6194 157.731 15.1521 157.279 15.5854C156.846 16.0007 156.295 16.2083 155.627 16.2083ZM157.496 17.9958V33H153.704V17.9958H157.496Z" fill="white"/>
<path d="M169.998 26.4893H164.5V31.9871H169.998V26.4893Z" fill="#3BAAFB"/>
<defs>
<linearGradient id="paint0_linear_313_31" x1="16.8029" y1="9.70576" x2="49.79" y2="47.6409" gradientUnits="userSpaceOnUse">
<stop stop-color="#57B8FF"/>
<stop offset="0.940625" stop-color="#038EF2"/>
<stop offset="1" stop-color="white" stop-opacity="0"/>
</linearGradient>
</defs>
</svg>
